<svg id="Capa_1" data-name="Capa 1" xmlns="http://www.w3.org/2000/svg" viewBox="0 0 81.38 78.19"><defs><style>.cls-1{fill:#fff;}</style></defs><title>ICONOS_FORMULARIO_TELÉFONO</title><path class="cls-1" d="M91.35,118.63c.65.05,1.3.08,1.94.08a17.86,17.86,0,0,0,9.3-2.44,14,14,0,0,0,3.33-2.69l2.56-2.83a13.67,13.67,0,0,0-1-19.29l-4.32-3.91a13.65,13.65,0,0,0-19.29,1l-2.56,2.83A13.3,13.3,0,0,0,79,95,47.65,47.65,0,0,1,55.56,73.51a13.66,13.66,0,0,0,4.82-3.42l2.56-2.83A13.66,13.66,0,0,0,62,48l-4.32-3.9a13.67,13.67,0,0,0-19.3,1L35.8,47.86a13.68,13.68,0,0,0-1,1.25c-2.86,2.54-5.11,8.1-3.79,14.94A67.9,67.9,0,0,0,91.35,118.63Zm-54-66.74a1,1,0,0,0,.18-.17l.12-.13.14-.19a11.21,11.21,0,0,1,.79-1l2.56-2.83a9.87,9.87,0,0,1,13.93-.69l4.32,3.9a9.86,9.86,0,0,1,.69,13.93l-2.55,2.83h0a9.93,9.93,0,0,1-4.47,2.83l-.77.23a1.89,1.89,0,0,0-1.2,1.06,1.93,1.93,0,0,0,0,1.61l.36.72a51.39,51.39,0,0,0,27.19,25l.68.27A1.91,1.91,0,0,0,81.9,98l.22-.68a10,10,0,0,1,2-3.46l2.57-2.83a9.84,9.84,0,0,1,13.92-.7l4.32,3.9a9.88,9.88,0,0,1,.7,13.93L103.1,111a9.78,9.78,0,0,1-2.46,2,14.61,14.61,0,0,1-9,1.84A64.08,64.08,0,0,1,34.74,63.33C33.63,57.55,35.71,53.33,37.39,51.89Z" transform="translate(-30.62 -40.53)"/></svg>