<svg id="Capa_1" data-name="Capa 1" xmlns="http://www.w3.org/2000/svg" viewBox="0 0 103.29 93.64"><defs><style>.cls-1{fill:#fff;}</style></defs><title>ICONOS_CABECERA_MENSAJES</title><path class="cls-1" d="M108,37.59H32.67a14,14,0,0,0-14,14v48.3a14,14,0,0,0,14,14h49L107,130.76a2.69,2.69,0,0,0,4.2-2.23V112.46c4.91-2.08,10.84-6.58,10.84-12.61V51.55A14,14,0,0,0,108,37.59Zm8.57,62.26c0,3.16-4.72,6.84-9,8.17a2.69,2.69,0,0,0-1.89,2.57v12.88L84,108.87a2.65,2.65,0,0,0-1.5-.46H32.67a8.57,8.57,0,0,1-8.57-8.56V51.55A8.57,8.57,0,0,1,32.67,43H108a8.57,8.57,0,0,1,8.57,8.57Z" transform="translate(-18.71 -37.59)"/><path class="cls-1" d="M102.06,55.55H38.49a5.07,5.07,0,1,0,0,10.13h63.57a5.07,5.07,0,0,0,0-10.13Zm0,6.9H38.49a1.83,1.83,0,1,1,0-3.66h63.57a1.83,1.83,0,1,1,0,3.66Z" transform="translate(-18.71 -37.59)"/><path class="cls-1" d="M102.06,70.41H38.49a5.07,5.07,0,1,0,0,10.13h63.57a5.07,5.07,0,0,0,0-10.13Zm0,6.9H38.49a1.83,1.83,0,1,1,0-3.66h63.57a1.83,1.83,0,0,1,0,3.66Z" transform="translate(-18.71 -37.59)"/><path class="cls-1" d="M102.06,84.76H38.49a5.07,5.07,0,1,0,0,10.13h63.57a5.07,5.07,0,0,0,0-10.13Zm0,6.9H38.49a1.84,1.84,0,1,1,0-3.67h63.57a1.84,1.84,0,0,1,0,3.67Z" transform="translate(-18.71 -37.59)"/></svg>