<svg id="Capa_1" data-name="Capa 1" xmlns="http://www.w3.org/2000/svg" viewBox="0 0 103.03 67.95"><defs><style>.cls-1{fill:#fff;}</style></defs><title>ICONOS_FORMULARIO_CLIENTE</title><path class="cls-1" d="M120.1,42a17.88,17.88,0,0,1-5.69,12.9c-1.49,1.37-3.34,2.61-4.85,4.07a4.7,4.7,0,0,0-1.19,4.72,8.45,8.45,0,0,1,.27,3.83,4.83,4.83,0,0,1-4.07,4.1c-2,.12-3.81-1.46-5-3.13-2.14-3-3.53-6.81-6.76-8.56-2.21-1.2-4.85-1.18-7.36-1.12A45.3,45.3,0,0,0,78,59.4a17.46,17.46,0,0,0-7.35,2.93C68.7,60.76,65.43,59.87,63,59.4a45.26,45.26,0,0,0-7.45-.57c-2.52-.06-5.16-.08-7.37,1.12-3.23,1.75-4.62,5.56-6.76,8.56-1.19,1.67-2.94,3.25-5,3.13a4.83,4.83,0,0,1-4.07-4.1,8.32,8.32,0,0,1,.28-3.83A4.74,4.74,0,0,0,31.42,59c-1.52-1.46-3.37-2.7-4.85-4.07A17.85,17.85,0,0,1,20.87,42,12,12,0,0,0,19,49.46a31.07,31.07,0,0,0,1.62,7.47C24.44,69.3,29.38,81.57,37.55,91.6s20,17.66,32.94,18.38h0c12.92-.72,24.75-8.35,32.93-18.38s13.11-22.3,16.94-34.67A31.07,31.07,0,0,0,122,49.46,11.83,11.83,0,0,0,120.1,42ZM96.27,81.72c-1,2.07-3.1,3.31-4.77,4.87s-2.88,3.4-4.43,5a8.6,8.6,0,0,1-5.79,3,6.21,6.21,0,0,1-5.21-3.06,7.75,7.75,0,0,1-.66-6.11,8.34,8.34,0,0,0,4.79-2.13,8.65,8.65,0,0,0,3-4.45c-.36-.09-.62-.2-1-.29H58.8c-.35.09-.62.2-1,.29a8.65,8.65,0,0,0,3,4.45,8.37,8.37,0,0,0,4.8,2.13,7.76,7.76,0,0,1-.67,6.11,6.21,6.21,0,0,1-5.21,3.06,8.57,8.57,0,0,1-5.78-3c-1.56-1.59-2.81-3.47-4.44-5s-3.78-2.8-4.77-4.87c-.88-1.83-.71-4-.42-6S45,71.46,46.49,70a7.33,7.33,0,0,1,5.78-1.83,28,28,0,0,1,6.06,1.47c3.91,1.21,8.11,1.51,12.17,2,4.06-.48,8.24-.78,12.15-2a27.77,27.77,0,0,1,6.06-1.47A7.3,7.3,0,0,1,94.48,70c1.47,1.48,1.92,3.67,2.21,5.74S97.15,79.89,96.27,81.72Z" transform="translate(-18.97 -42.02)"/></svg>