<svg id="Capa_1" data-name="Capa 1" xmlns="http://www.w3.org/2000/svg" viewBox="0 0 88.03 88.03"><defs><style>.cls-1{fill:#fff;}</style></defs><title>ICONOS_FORMULARIO_DURACIÓN</title><path class="cls-1" d="M71,131.87a44,44,0,1,0-44-44A44.06,44.06,0,0,0,71,131.87Zm38.94-44A38.94,38.94,0,1,1,71,48.92,39,39,0,0,1,109.92,87.86Z" transform="translate(-26.97 -43.84)"/><path class="cls-1" d="M33.77,87.86A1.27,1.27,0,0,0,35,89.13h9.38a1.27,1.27,0,0,0,0-2.54H35A1.27,1.27,0,0,0,33.77,87.86Z" transform="translate(-26.97 -43.84)"/><path class="cls-1" d="M98.05,89.13h9.38a1.27,1.27,0,0,0,0-2.54H98.05a1.27,1.27,0,0,0,0,2.54Z" transform="translate(-26.97 -43.84)"/><path class="cls-1" d="M71.24,62.31A1.26,1.26,0,0,0,72.5,61V51.66a1.27,1.27,0,1,0-2.53,0V61A1.27,1.27,0,0,0,71.24,62.31Z" transform="translate(-26.97 -43.84)"/><path class="cls-1" d="M71.24,113.41A1.26,1.26,0,0,0,70,114.68v9.37a1.27,1.27,0,1,0,2.53,0v-9.37A1.26,1.26,0,0,0,71.24,113.41Z" transform="translate(-26.97 -43.84)"/><path class="cls-1" d="M70.81,95.69c.7,0,1.26-1.26,1.26-2.8V72.16c0-1.54-.56-2.8-1.26-2.8s-1.27,1.26-1.27,2.8V92.89C69.54,94.43,70.1,95.69,70.81,95.69Z" transform="translate(-26.97 -43.84)"/><path class="cls-1" d="M68.85,92.8c-.29.69.38,1.63,1.48,2.09L85.15,101c1.1.46,2.23.26,2.52-.43s-.38-1.64-1.48-2.1L71.37,92.36C70.27,91.9,69.14,92.09,68.85,92.8Z" transform="translate(-26.97 -43.84)"/></svg>