<svg id="Capa_1" data-name="Capa 1" xmlns="http://www.w3.org/2000/svg" viewBox="0 0 103.38 100.2"><defs><style>.cls-1{fill:#fff;}.cls-2{fill:#231f20;}</style></defs><title>ICONOS_FORMULARIO_SERVICIO</title><path class="cls-1" d="M105.27,46.85h0a3.28,3.28,0,0,1,1.84,3.9c-3.47,12.21-19.52,61.77-56.63,84.4a7.42,7.42,0,0,1-8.86-.93h0a7.42,7.42,0,0,1,0-10.9C54.12,111.73,83.3,82.64,101,48.37A3.3,3.3,0,0,1,105.27,46.85Z" transform="translate(-18.62 -36)"/><path class="cls-1" d="M27.35,36.16l74.89,15.68-1,4.9L78.76,52.41h0a7.89,7.89,0,0,1-9.2,6.34l-45-8.39a7.24,7.24,0,0,1-5.71-8.82h0A7.23,7.23,0,0,1,27.35,36.16Z" transform="translate(-18.62 -36)"/><path class="cls-1" d="M105.52,54.46a8.71,8.71,0,0,0,1,1.51,9.91,9.91,0,0,0,1.49,1.4,11.16,11.16,0,0,0,3.75,1.9,15,15,0,0,0,4.42.49c.77,0,1.53-.15,2.31-.22l2.31-.49.09,0a.9.9,0,0,1,.5,1.73l-2.4.89c-.83.2-1.66.47-2.52.62a18.29,18.29,0,0,1-5.34.19,15.23,15.23,0,0,1-5.29-1.76,14.62,14.62,0,0,1-2.35-1.65,12.05,12.05,0,0,1-2.07-2.29l0,0a2.36,2.36,0,1,1,3.9-2.66A1.81,1.81,0,0,1,105.52,54.46Z" transform="translate(-18.62 -36)"/><circle class="cls-2" cx="85.1" cy="14.15" r="1.4"/><path class="cls-2" d="M49.1,128.51a2.29,2.29,0,1,1-2.29-2.29A2.28,2.28,0,0,1,49.1,128.51Z" transform="translate(-18.62 -36)"/></svg>