<svg id="Capa_1" data-name="Capa 1" xmlns="http://www.w3.org/2000/svg" viewBox="0 0 103.2 112.46"><defs><style>.cls-1{fill:#fff;}</style></defs><title>ICONOS_FORMULARIO_FECHA</title><path class="cls-1" d="M110.64,37.16h-3.28a2.07,2.07,0,0,0-.79.17V26.38a6.6,6.6,0,0,0-13.19,0V37.2a2.2,2.2,0,0,0-.36,0H47.79a2.08,2.08,0,0,0-.5.07V26.38a6.59,6.59,0,1,0-13.18,0V37.29a1.86,1.86,0,0,0-.67-.13H30.16A11.38,11.38,0,0,0,18.8,48.53v72.36a11.38,11.38,0,0,0,11.36,11.36h80.48A11.38,11.38,0,0,0,122,120.89V48.53A11.38,11.38,0,0,0,110.64,37.16ZM97.07,26.38a2.9,2.9,0,0,1,5.8,0V46.21a2.9,2.9,0,0,1-5.8,0Zm-59.27,0a2.9,2.9,0,1,1,5.8,0V46.21a2.9,2.9,0,1,1-5.8,0ZM118,120.89a7.36,7.36,0,0,1-7.35,7.35H30.16a7.36,7.36,0,0,1-7.35-7.35V48.53a7.36,7.36,0,0,1,7.35-7.36h1.28v3.92a9.18,9.18,0,1,0,18.35,0V41.17H91v3.92a9.18,9.18,0,0,0,18.36,0V41.17h1.27A7.36,7.36,0,0,1,118,48.53Z" transform="translate(-18.8 -19.79)"/><path class="cls-1" d="M112.17,66H29a2,2,0,0,0-2,2v49.16a6.9,6.9,0,0,0,6.89,6.89h73.41a6.9,6.9,0,0,0,6.89-6.89V68A2,2,0,0,0,112.17,66Zm-2,51.16a2.89,2.89,0,0,1-2.88,2.89H33.87A2.9,2.9,0,0,1,31,117.17V70h79.18Z" transform="translate(-18.8 -19.79)"/></svg>