<svg id="Capa_1" data-name="Capa 1" xmlns="http://www.w3.org/2000/svg" viewBox="0 0 79.93 133"><defs><style>.cls-1{fill:#fff;}</style></defs><title>ICONOS_CABECERA_SUCURSALES</title><path class="cls-1" d="M109,64.42a40,40,0,1,0-77.67,0A59.94,59.94,0,0,0,35.71,80c3.93,8.26,20.46,35.49,28,47.89-10.25,1.31-15,5.72-15,9.88,0,4.94,6.71,10.27,21.44,10.27s21.45-5.33,21.45-10.27c0-4.16-4.76-8.57-15-9.88,7.59-12.4,24.12-39.63,28.05-47.89A59.94,59.94,0,0,0,109,64.42ZM85.45,137.73c-.42,1.17-5.58,4.1-15.27,4.1s-15-3-15.27-4.07c.27-1,4.49-3.54,12.45-4,.09.15.16.27.2.32a3.08,3.08,0,0,0,5.25,0s.11-.17.2-.32C80.87,134.21,85.08,136.68,85.45,137.73ZM103,63.06c0,.08,0,.16,0,.24a54.85,54.85,0,0,1-3.87,14c-4,8.33-22.06,38.05-28.9,49.22-6.84-11.17-24.93-40.89-28.9-49.22a55.31,55.31,0,0,1-3.86-14c0-.08,0-.16,0-.24a33.49,33.49,0,0,1-1-8.09A33.8,33.8,0,1,1,104,55,33.49,33.49,0,0,1,103,63.06Z" transform="translate(-30.22 -15)"/><path class="cls-1" d="M70.18,32.5A21.45,21.45,0,1,0,91.63,53.94,21.47,21.47,0,0,0,70.18,32.5Zm0,36.72A15.28,15.28,0,1,1,85.46,53.94,15.29,15.29,0,0,1,70.18,69.22Z" transform="translate(-30.22 -15)"/></svg>